<svg width="20" height="20" viewBox="0 0 20 20" fill="none" xmlns="http://www.w3.org/2000/svg">
<path d="M19.2653 18.7347L14.3247 13.7941C15.7094 12.2708 16.4434 10.2664 16.3699 8.20914C16.2964 6.15188 15.4213 4.20495 13.9314 2.78438C12.4415 1.36381 10.4552 0.582276 8.39674 0.606776C6.33832 0.631275 4.37111 1.45987 2.91548 2.9155C1.45985 4.37113 0.63126 6.33833 0.60676 8.39676C0.58226 10.4552 1.3638 12.4416 2.78437 13.9314C4.20494 15.4213 6.15187 16.2965 8.20912 16.3699C10.2664 16.4434 12.2708 15.7094 13.794 14.3247L18.7347 19.2653C18.805 19.3357 18.9005 19.3752 19 19.3752C19.0995 19.3752 19.1949 19.3357 19.2653 19.2653C19.3357 19.1949 19.3752 19.0995 19.3752 19C19.3752 18.9005 19.3357 18.805 19.2653 18.7347ZM1.37498 8.5C1.37498 7.0908 1.79285 5.71326 2.57576 4.54156C3.35866 3.36986 4.47144 2.45663 5.77336 1.91735C7.07528 1.37808 8.50788 1.23698 9.89 1.5119C11.2721 1.78682 12.5417 2.46541 13.5381 3.46186C14.5346 4.45831 15.2132 5.72786 15.4881 7.10998C15.763 8.49209 15.6219 9.92469 15.0826 11.2266C14.5433 12.5285 13.6301 13.6413 12.4584 14.4242C11.2867 15.2071 9.90917 15.625 8.49998 15.625C6.61092 15.623 4.7998 14.8717 3.46404 13.5359C2.12827 12.2002 1.37697 10.3891 1.37498 8.5Z" fill="black"/>
</svg>
